%TF.GenerationSoftware,KiCad,Pcbnew,10.0.3*%
%TF.CreationDate,2026-07-23T23:37:59+05:30*%
%TF.ProjectId,pokedex,706f6b65-6465-4782-9e6b-696361645f70,rev?*%
%TF.SameCoordinates,Original*%
%TF.FileFunction,Soldermask,Bot*%
%TF.FilePolarity,Negative*%
%FSLAX46Y46*%
G04 Gerber Fmt 4.6, Leading zero omitted, Abs format (unit mm)*
G04 Created by KiCad (PCBNEW 10.0.3) date 2026-07-23 23:37:59*
%MOMM*%
%LPD*%
G01*
G04 APERTURE LIST*
G04 Aperture macros list*
%AMRoundRect*
0 Rectangle with rounded corners*
0 $1 Rounding radius*
0 $2 $3 $4 $5 $6 $7 $8 $9 X,Y pos of 4 corners*
0 Add a 4 corners polygon primitive as box body*
4,1,4,$2,$3,$4,$5,$6,$7,$8,$9,$2,$3,0*
0 Add four circle primitives for the rounded corners*
1,1,$1+$1,$2,$3*
1,1,$1+$1,$4,$5*
1,1,$1+$1,$6,$7*
1,1,$1+$1,$8,$9*
0 Add four rect primitives between the rounded corners*
20,1,$1+$1,$2,$3,$4,$5,0*
20,1,$1+$1,$4,$5,$6,$7,0*
20,1,$1+$1,$6,$7,$8,$9,0*
20,1,$1+$1,$8,$9,$2,$3,0*%
G04 Aperture macros list end*
%ADD10RoundRect,0.250000X-0.350000X-0.625000X0.350000X-0.625000X0.350000X0.625000X-0.350000X0.625000X0*%
%ADD11O,1.200000X1.750000*%
%ADD12C,2.000000*%
%ADD13C,0.900000*%
%ADD14C,0.650000*%
%ADD15O,1.000000X2.100000*%
%ADD16O,1.000000X1.600000*%
%ADD17R,1.700000X1.700000*%
%ADD18C,1.700000*%
%ADD19C,1.600000*%
G04 APERTURE END LIST*
D10*
%TO.C,LS1*%
X106000000Y-109000000D03*
D11*
X108000000Y-109000000D03*
%TD*%
D12*
%TO.C,SW6*%
X84250000Y-104250000D03*
X90750000Y-104250000D03*
X84250000Y-108750000D03*
X90750000Y-108750000D03*
%TD*%
D13*
%TO.C,SW3*%
X64000000Y-124000000D03*
X67000000Y-124000000D03*
%TD*%
D14*
%TO.C,J1*%
X85610000Y-122900000D03*
X91390000Y-122900000D03*
D15*
X84180000Y-122370000D03*
D16*
X84180000Y-126550000D03*
D15*
X92820000Y-122370000D03*
D16*
X92820000Y-126550000D03*
%TD*%
D12*
%TO.C,SW7*%
X74750000Y-111750000D03*
X81250000Y-111750000D03*
X74750000Y-116250000D03*
X81250000Y-116250000D03*
%TD*%
%TO.C,SW4*%
X74750000Y-96750000D03*
X81250000Y-96750000D03*
X74750000Y-101250000D03*
X81250000Y-101250000D03*
%TD*%
%TO.C,SW11*%
X116000000Y-91000000D03*
X122500000Y-91000000D03*
X116000000Y-95500000D03*
X122500000Y-95500000D03*
%TD*%
%TO.C,SW9*%
X115750000Y-112250000D03*
X122250000Y-112250000D03*
X115750000Y-116750000D03*
X122250000Y-116750000D03*
%TD*%
%TO.C,SW8*%
X115750000Y-104750000D03*
X122250000Y-104750000D03*
X115750000Y-109250000D03*
X122250000Y-109250000D03*
%TD*%
D17*
%TO.C,J2*%
X75420000Y-70000000D03*
D18*
X77960000Y-70000000D03*
X80500000Y-70000000D03*
X83040000Y-70000000D03*
X85580000Y-70000000D03*
X88120000Y-70000000D03*
X90660000Y-70000000D03*
X93200000Y-70000000D03*
%TD*%
D12*
%TO.C,SW10*%
X116000000Y-82500000D03*
X122500000Y-82500000D03*
X116000000Y-87000000D03*
X122500000Y-87000000D03*
%TD*%
D19*
%TO.C,CN1*%
X78000000Y-125500000D03*
X76000000Y-125500000D03*
%TD*%
D12*
%TO.C,SW5*%
X65250000Y-104250000D03*
X71750000Y-104250000D03*
X65250000Y-108750000D03*
X71750000Y-108750000D03*
%TD*%
M02*
