%TF.GenerationSoftware,KiCad,Pcbnew,10.0.3*%
%TF.CreationDate,2026-07-23T23:37:59+05:30*%
%TF.ProjectId,pokedex,706f6b65-6465-4782-9e6b-696361645f70,rev?*%
%TF.SameCoordinates,Original*%
%TF.FileFunction,Copper,L2,Bot*%
%TF.FilePolarity,Positive*%
%FSLAX46Y46*%
G04 Gerber Fmt 4.6, Leading zero omitted, Abs format (unit mm)*
G04 Created by KiCad (PCBNEW 10.0.3) date 2026-07-23 23:37:59*
%MOMM*%
%LPD*%
G01*
G04 APERTURE LIST*
G04 Aperture macros list*
%AMRoundRect*
0 Rectangle with rounded corners*
0 $1 Rounding radius*
0 $2 $3 $4 $5 $6 $7 $8 $9 X,Y pos of 4 corners*
0 Add a 4 corners polygon primitive as box body*
4,1,4,$2,$3,$4,$5,$6,$7,$8,$9,$2,$3,0*
0 Add four circle primitives for the rounded corners*
1,1,$1+$1,$2,$3*
1,1,$1+$1,$4,$5*
1,1,$1+$1,$6,$7*
1,1,$1+$1,$8,$9*
0 Add four rect primitives between the rounded corners*
20,1,$1+$1,$2,$3,$4,$5,0*
20,1,$1+$1,$4,$5,$6,$7,0*
20,1,$1+$1,$6,$7,$8,$9,0*
20,1,$1+$1,$8,$9,$2,$3,0*%
G04 Aperture macros list end*
%TA.AperFunction,ComponentPad*%
%ADD10RoundRect,0.250000X-0.350000X-0.625000X0.350000X-0.625000X0.350000X0.625000X-0.350000X0.625000X0*%
%TD*%
%TA.AperFunction,ComponentPad*%
%ADD11O,1.200000X1.750000*%
%TD*%
%TA.AperFunction,ComponentPad*%
%ADD12C,2.000000*%
%TD*%
%TA.AperFunction,ComponentPad*%
%ADD13O,1.000000X2.100000*%
%TD*%
%TA.AperFunction,ComponentPad*%
%ADD14O,1.000000X1.600000*%
%TD*%
%TA.AperFunction,ComponentPad*%
%ADD15R,1.700000X1.700000*%
%TD*%
%TA.AperFunction,ComponentPad*%
%ADD16C,1.700000*%
%TD*%
%TA.AperFunction,ComponentPad*%
%ADD17C,1.600000*%
%TD*%
%TA.AperFunction,ViaPad*%
%ADD18C,0.600000*%
%TD*%
%TA.AperFunction,Conductor*%
%ADD19C,0.200000*%
%TD*%
G04 APERTURE END LIST*
D10*
%TO.P,LS1,1,1_1*%
%TO.N,Net-(U1-VO2)*%
X106000000Y-109000000D03*
D11*
%TO.P,LS1,2,2_2*%
%TO.N,Net-(U1-VO1)*%
X108000000Y-109000000D03*
%TD*%
D12*
%TO.P,SW6,1,1_1*%
%TO.N,/GPIO18*%
X84250000Y-104250000D03*
X90750000Y-104250000D03*
%TO.P,SW6,2,2_2*%
%TO.N,GND*%
X84250000Y-108750000D03*
X90750000Y-108750000D03*
%TD*%
D13*
%TO.P,J1,SH,SHIELD_SH*%
%TO.N,GND*%
X84180000Y-122370000D03*
D14*
X84180000Y-126550000D03*
D13*
X92820000Y-122370000D03*
D14*
X92820000Y-126550000D03*
%TD*%
D12*
%TO.P,SW7,1,1_1*%
%TO.N,/GPIO21*%
X74750000Y-111750000D03*
X81250000Y-111750000D03*
%TO.P,SW7,2,2_2*%
%TO.N,GND*%
X74750000Y-116250000D03*
X81250000Y-116250000D03*
%TD*%
%TO.P,SW4,1,1_1*%
%TO.N,/GPIO16*%
X74750000Y-96750000D03*
X81250000Y-96750000D03*
%TO.P,SW4,2,2_2*%
%TO.N,GND*%
X74750000Y-101250000D03*
X81250000Y-101250000D03*
%TD*%
%TO.P,SW11,1,1_1*%
%TO.N,/GPIO41*%
X116000000Y-91000000D03*
X122500000Y-91000000D03*
%TO.P,SW11,2,2_2*%
%TO.N,GND*%
X116000000Y-95500000D03*
X122500000Y-95500000D03*
%TD*%
%TO.P,SW9,1,1_1*%
%TO.N,/GPIO39*%
X115750000Y-112250000D03*
X122250000Y-112250000D03*
%TO.P,SW9,2,2_2*%
%TO.N,GND*%
X115750000Y-116750000D03*
X122250000Y-116750000D03*
%TD*%
%TO.P,SW8,1,1_1*%
%TO.N,/GPIO38*%
X115750000Y-104750000D03*
X122250000Y-104750000D03*
%TO.P,SW8,2,2_2*%
%TO.N,GND*%
X115750000Y-109250000D03*
X122250000Y-109250000D03*
%TD*%
D15*
%TO.P,J2,1,Pin_1_1*%
%TO.N,+3.3V*%
X75420000Y-70000000D03*
D16*
%TO.P,J2,2,Pin_2_2*%
%TO.N,GND*%
X77960000Y-70000000D03*
%TO.P,J2,3,Pin_3_3*%
%TO.N,Net-(J2-Pin_3)*%
X80500000Y-70000000D03*
%TO.P,J2,4,Pin_4_4*%
%TO.N,Net-(J2-Pin_4)*%
X83040000Y-70000000D03*
%TO.P,J2,5,Pin_5_5*%
%TO.N,Net-(J2-Pin_5)*%
X85580000Y-70000000D03*
%TO.P,J2,6,Pin_6_6*%
%TO.N,/GPIO11*%
X88120000Y-70000000D03*
%TO.P,J2,7,Pin_7_7*%
%TO.N,/GPIO12*%
X90660000Y-70000000D03*
%TO.P,J2,8,Pin_8_8*%
%TO.N,+3.3V*%
X93200000Y-70000000D03*
%TD*%
D12*
%TO.P,SW10,1,1_1*%
%TO.N,/GPIO40*%
X116000000Y-82500000D03*
X122500000Y-82500000D03*
%TO.P,SW10,2,2_2*%
%TO.N,GND*%
X116000000Y-87000000D03*
X122500000Y-87000000D03*
%TD*%
D17*
%TO.P,CN1,1,1_1*%
%TO.N,Net-(SW3-B)*%
X78000000Y-125500000D03*
%TO.P,CN1,2,2_2*%
%TO.N,GND*%
X76000000Y-125500000D03*
%TD*%
D12*
%TO.P,SW5,1,1_1*%
%TO.N,/GPIO17*%
X65250000Y-104250000D03*
X71750000Y-104250000D03*
%TO.P,SW5,2,2_2*%
%TO.N,GND*%
X65250000Y-108750000D03*
X71750000Y-108750000D03*
%TD*%
D18*
%TO.N,GND*%
X80990100Y-87180000D03*
%TO.N,+3.3V*%
X77930700Y-104217000D03*
X75022200Y-87050000D03*
%TO.N,Net-(U2-EN)*%
X67423800Y-77500000D03*
X71757800Y-91192300D03*
%TO.N,/GPIO5*%
X106433700Y-101819200D03*
X104801800Y-93176400D03*
%TO.N,/GPIO16*%
X85970600Y-99631700D03*
%TO.N,Net-(J2-Pin_4)*%
X104190000Y-95684400D03*
%TO.N,Net-(J2-Pin_5)*%
X105245800Y-90291700D03*
%TO.N,Net-(J2-Pin_3)*%
X100297200Y-88850000D03*
%TO.N,/GPIO11*%
X93995400Y-83143200D03*
X100305800Y-87580000D03*
%TO.N,/GPIO12*%
X68749400Y-87050300D03*
X103568800Y-86310000D03*
X80255000Y-71437400D03*
%TO.N,/GPIO13*%
X71757800Y-85031500D03*
X77122800Y-90272000D03*
%TO.N,/GPIO21*%
X88364800Y-82500000D03*
%TO.N,/GPIO38*%
X105937200Y-78760700D03*
%TO.N,/GPIO39*%
X101351900Y-78200800D03*
%TO.N,/GPIO40*%
X110585000Y-75878300D03*
%TO.N,/GPIO41*%
X109103400Y-77287800D03*
%TO.N,/GPIO42*%
X96570000Y-78189200D03*
X99500000Y-118064300D03*
%TD*%
%TO.N,GND*%
D19*
X123602300Y-107897700D02*
X122250000Y-109250000D01*
X123854500Y-93497800D02*
X123602300Y-93750000D01*
X79909500Y-87180000D02*
X80990100Y-87180000D01*
X74750000Y-105750000D02*
X71750000Y-108750000D01*
X74750000Y-116250000D02*
X71750000Y-113250000D01*
X123586200Y-110586200D02*
X123586200Y-115413800D01*
X122500000Y-87000000D02*
X123854500Y-88354500D01*
X123602300Y-93750000D02*
X123602300Y-107897700D01*
X76000000Y-125500000D02*
X76000000Y-117500000D01*
X76000000Y-117500000D02*
X74750000Y-116250000D01*
X79909500Y-99909500D02*
X81250000Y-101250000D01*
X77960000Y-70000000D02*
X79909500Y-71949500D01*
X71750000Y-113250000D02*
X71750000Y-108750000D01*
X84180000Y-126550000D02*
X84180000Y-122370000D01*
X123602300Y-93750000D02*
X122500000Y-93750000D01*
X123854500Y-88354500D02*
X123854500Y-93497800D01*
X81250000Y-101250000D02*
X81250000Y-105750000D01*
X84180000Y-119180000D02*
X81250000Y-116250000D01*
X84180000Y-122370000D02*
X84180000Y-119180000D01*
X122500000Y-93750000D02*
X122500000Y-95500000D01*
X81250000Y-105750000D02*
X84250000Y-108750000D01*
X122250000Y-109250000D02*
X123586200Y-110586200D01*
X79909500Y-71949500D02*
X79909500Y-87180000D01*
X74750000Y-101250000D02*
X74750000Y-105750000D01*
X123586200Y-115413800D02*
X122250000Y-116750000D01*
X92820000Y-126550000D02*
X92820000Y-122370000D01*
X79909500Y-87180000D02*
X79909500Y-99909500D01*
%TO.N,+3.3V*%
X75420000Y-86652200D02*
X75022200Y-87050000D01*
X77930700Y-104217000D02*
X77930700Y-89958500D01*
X77930700Y-89958500D02*
X75022200Y-87050000D01*
X75420000Y-70000000D02*
X75420000Y-86652200D01*
%TO.N,Net-(U2-EN)*%
X71757800Y-91192300D02*
X67423800Y-86858300D01*
X67423800Y-86858300D02*
X67423800Y-77500000D01*
%TO.N,/GPIO5*%
X106433700Y-101819200D02*
X104801800Y-100187300D01*
X104801800Y-100187300D02*
X104801800Y-93176400D01*
%TO.N,/GPIO16*%
X83088900Y-96750000D02*
X85970600Y-99631700D01*
X81250000Y-96750000D02*
X83088900Y-96750000D01*
%TO.N,Net-(J2-Pin_4)*%
X104190000Y-95684400D02*
X104190000Y-79386000D01*
X95287000Y-70483000D02*
X95287000Y-70406400D01*
X95287000Y-70406400D02*
X93718300Y-68837700D01*
X87653600Y-68837700D02*
X86968300Y-69523000D01*
X93718300Y-68837700D02*
X87653600Y-68837700D01*
X86968300Y-69523000D02*
X86968300Y-70275800D01*
X104190000Y-79386000D02*
X95287000Y-70483000D01*
X84191700Y-71151700D02*
X83040000Y-70000000D01*
X86092400Y-71151700D02*
X84191700Y-71151700D01*
X86968300Y-70275800D02*
X86092400Y-71151700D01*
%TO.N,Net-(J2-Pin_5)*%
X105245800Y-90291700D02*
X105245800Y-79797200D01*
X93884600Y-68436000D02*
X87144000Y-68436000D01*
X87144000Y-68436000D02*
X85580000Y-70000000D01*
X105245800Y-79797200D02*
X93884600Y-68436000D01*
%TO.N,Net-(J2-Pin_3)*%
X98851400Y-88850000D02*
X100297200Y-88850000D01*
X80500000Y-70498600D02*
X98851400Y-88850000D01*
X80500000Y-70000000D02*
X80500000Y-70498600D01*
%TO.N,/GPIO11*%
X88120000Y-70000000D02*
X88120000Y-75394200D01*
X88120000Y-75394200D02*
X93995400Y-81269600D01*
X93995400Y-81269600D02*
X93995400Y-83143200D01*
X93995400Y-81269600D02*
X100305800Y-87580000D01*
%TO.N,/GPIO12*%
X80255000Y-71437400D02*
X79230000Y-70412400D01*
X74401800Y-68848300D02*
X68749400Y-74500700D01*
X103568800Y-79556300D02*
X103568800Y-86310000D01*
X90660000Y-70000000D02*
X97486200Y-76826200D01*
X100838700Y-76826200D02*
X103568800Y-79556300D01*
X79230000Y-69631100D02*
X78447200Y-68848300D01*
X97486200Y-76826200D02*
X100838700Y-76826200D01*
X68749400Y-74500700D02*
X68749400Y-87050300D01*
X79230000Y-70412400D02*
X79230000Y-69631100D01*
X78447200Y-68848300D02*
X74401800Y-68848300D01*
%TO.N,/GPIO13*%
X77122800Y-90272000D02*
X76998300Y-90272000D01*
X76998300Y-90272000D02*
X71757800Y-85031500D01*
%TO.N,/GPIO21*%
X83097600Y-111750000D02*
X88364800Y-106482800D01*
X88364800Y-106482800D02*
X88364800Y-82500000D01*
X81250000Y-111750000D02*
X83097600Y-111750000D01*
%TO.N,/GPIO38*%
X105937200Y-94937200D02*
X105937200Y-78760700D01*
X115750000Y-104750000D02*
X105937200Y-94937200D01*
%TO.N,/GPIO39*%
X101351900Y-97851900D02*
X101351900Y-78200800D01*
X115750000Y-112250000D02*
X101351900Y-97851900D01*
%TO.N,/GPIO40*%
X116000000Y-82500000D02*
X110585000Y-77085000D01*
X110585000Y-77085000D02*
X110585000Y-75878300D01*
%TO.N,/GPIO41*%
X116000000Y-89250000D02*
X116000000Y-91000000D01*
X109103400Y-77287800D02*
X109103400Y-82353400D01*
X109103400Y-82353400D02*
X116000000Y-89250000D01*
%TO.N,/GPIO42*%
X100921500Y-82540700D02*
X100921500Y-116642800D01*
X96570000Y-78189200D02*
X100921500Y-82540700D01*
X100921500Y-116642800D02*
X99500000Y-118064300D01*
%TD*%
M02*
