%TF.GenerationSoftware,KiCad,Pcbnew,10.0.3*%
%TF.CreationDate,2026-07-23T23:37:59+05:30*%
%TF.ProjectId,pokedex,706f6b65-6465-4782-9e6b-696361645f70,rev?*%
%TF.SameCoordinates,Original*%
%TF.FileFunction,Soldermask,Top*%
%TF.FilePolarity,Negative*%
%FSLAX46Y46*%
G04 Gerber Fmt 4.6, Leading zero omitted, Abs format (unit mm)*
G04 Created by KiCad (PCBNEW 10.0.3) date 2026-07-23 23:37:59*
%MOMM*%
%LPD*%
G01*
G04 APERTURE LIST*
G04 Aperture macros list*
%AMRoundRect*
0 Rectangle with rounded corners*
0 $1 Rounding radius*
0 $2 $3 $4 $5 $6 $7 $8 $9 X,Y pos of 4 corners*
0 Add a 4 corners polygon primitive as box body*
4,1,4,$2,$3,$4,$5,$6,$7,$8,$9,$2,$3,0*
0 Add four circle primitives for the rounded corners*
1,1,$1+$1,$2,$3*
1,1,$1+$1,$4,$5*
1,1,$1+$1,$6,$7*
1,1,$1+$1,$8,$9*
0 Add four rect primitives between the rounded corners*
20,1,$1+$1,$2,$3,$4,$5,0*
20,1,$1+$1,$4,$5,$6,$7,0*
20,1,$1+$1,$6,$7,$8,$9,0*
20,1,$1+$1,$8,$9,$2,$3,0*%
G04 Aperture macros list end*
%ADD10RoundRect,0.150000X-0.512500X-0.150000X0.512500X-0.150000X0.512500X0.150000X-0.512500X0.150000X0*%
%ADD11RoundRect,0.250000X-0.350000X-0.625000X0.350000X-0.625000X0.350000X0.625000X-0.350000X0.625000X0*%
%ADD12O,1.200000X1.750000*%
%ADD13RoundRect,0.225000X0.250000X-0.225000X0.250000X0.225000X-0.250000X0.225000X-0.250000X-0.225000X0*%
%ADD14C,2.000000*%
%ADD15RoundRect,0.225000X-0.225000X-0.250000X0.225000X-0.250000X0.225000X0.250000X-0.225000X0.250000X0*%
%ADD16R,1.000000X0.800000*%
%ADD17C,0.900000*%
%ADD18R,0.700000X1.500000*%
%ADD19R,0.900000X1.500000*%
%ADD20R,1.500000X0.900000*%
%ADD21R,0.900000X0.900000*%
%ADD22C,0.650000*%
%ADD23RoundRect,0.150000X-0.150000X-0.575000X0.150000X-0.575000X0.150000X0.575000X-0.150000X0.575000X0*%
%ADD24RoundRect,0.075000X-0.075000X-0.650000X0.075000X-0.650000X0.075000X0.650000X-0.075000X0.650000X0*%
%ADD25O,1.000000X2.100000*%
%ADD26O,1.000000X1.600000*%
%ADD27RoundRect,0.200000X-0.200000X-0.275000X0.200000X-0.275000X0.200000X0.275000X-0.200000X0.275000X0*%
%ADD28RoundRect,0.200000X0.275000X-0.200000X0.275000X0.200000X-0.275000X0.200000X-0.275000X-0.200000X0*%
%ADD29RoundRect,0.200000X-0.200000X-0.800000X0.200000X-0.800000X0.200000X0.800000X-0.200000X0.800000X0*%
%ADD30RoundRect,0.090000X-0.660000X-0.360000X0.660000X-0.360000X0.660000X0.360000X-0.660000X0.360000X0*%
%ADD31R,1.200000X0.700000*%
%ADD32R,0.800000X1.000000*%
%ADD33R,1.200000X1.000000*%
%ADD34R,2.800000X1.000000*%
%ADD35R,1.900000X1.300000*%
%ADD36RoundRect,0.175000X-0.175000X1.250000X-0.175000X-1.250000X0.175000X-1.250000X0.175000X1.250000X0*%
%ADD37R,4.450000X4.570000*%
%ADD38O,0.630000X1.865000*%
%ADD39R,1.700000X1.700000*%
%ADD40C,1.700000*%
%ADD41RoundRect,0.200000X0.200000X0.800000X-0.200000X0.800000X-0.200000X-0.800000X0.200000X-0.800000X0*%
%ADD42C,1.600000*%
G04 APERTURE END LIST*
D10*
%TO.C,U3*%
X66362500Y-113050000D03*
X66362500Y-114000000D03*
X66362500Y-114950000D03*
X68637500Y-114950000D03*
X68637500Y-113050000D03*
%TD*%
D11*
%TO.C,LS1*%
X106000000Y-109000000D03*
D12*
X108000000Y-109000000D03*
%TD*%
D13*
%TO.C,C9*%
X62000000Y-111275000D03*
X62000000Y-109725000D03*
%TD*%
D14*
%TO.C,SW6*%
X84250000Y-104250000D03*
X90750000Y-104250000D03*
X84250000Y-108750000D03*
X90750000Y-108750000D03*
%TD*%
D15*
%TO.C,C10*%
X57000000Y-111500000D03*
X58550000Y-111500000D03*
%TD*%
%TO.C,C14*%
X70000000Y-119000000D03*
X71550000Y-119000000D03*
%TD*%
D16*
%TO.C,SW3*%
X61850000Y-122890000D03*
X61850000Y-125100000D03*
D17*
X64000000Y-124000000D03*
X67000000Y-124000000D03*
D16*
X69150000Y-122890000D03*
X69150000Y-125100000D03*
D18*
X63250000Y-122240000D03*
X66250000Y-122240000D03*
X67750000Y-122240000D03*
%TD*%
D13*
%TO.C,C5*%
X104500000Y-117000000D03*
X104500000Y-115450000D03*
%TD*%
%TO.C,C6*%
X104500000Y-123775000D03*
X104500000Y-122225000D03*
%TD*%
D19*
%TO.C,U2*%
X90220000Y-94430000D03*
X91490000Y-94430000D03*
X92760000Y-94430000D03*
X94030000Y-94430000D03*
X95300000Y-94430000D03*
X96570000Y-94430000D03*
X97840000Y-94430000D03*
X99110000Y-94430000D03*
X100380000Y-94430000D03*
X101650000Y-94430000D03*
X102920000Y-94430000D03*
X104190000Y-94430000D03*
X105460000Y-94430000D03*
X106730000Y-94430000D03*
D20*
X108000000Y-92670000D03*
X108000000Y-91400000D03*
X108000000Y-90130000D03*
X108000000Y-88850000D03*
X108000000Y-87580000D03*
X108000000Y-86310000D03*
X108000000Y-85040000D03*
X108000000Y-83770000D03*
X108000000Y-82500000D03*
X108000000Y-81230000D03*
X108000000Y-79960000D03*
X107970000Y-78690000D03*
D19*
X106730000Y-76930000D03*
X105460000Y-76930000D03*
X104190000Y-76930000D03*
X102920000Y-76930000D03*
X101650000Y-76930000D03*
X100380000Y-76930000D03*
X99110000Y-76930000D03*
X97840000Y-76930000D03*
X96570000Y-76930000D03*
X95300000Y-76930000D03*
X94030000Y-76930000D03*
X92760000Y-76930000D03*
X91490000Y-76930000D03*
X90220000Y-76930000D03*
D21*
X96540000Y-88580000D03*
X97940000Y-88580000D03*
X99340000Y-88580000D03*
X96540000Y-87180000D03*
X97940000Y-87180000D03*
X99340000Y-87180000D03*
X96540000Y-85780000D03*
X97940000Y-85780000D03*
X99340000Y-85780000D03*
%TD*%
D15*
%TO.C,C1*%
X87500000Y-117000000D03*
X89050000Y-117000000D03*
%TD*%
D22*
%TO.C,J1*%
X85610000Y-122900000D03*
X91390000Y-122900000D03*
D23*
X85250000Y-121455000D03*
X86050000Y-121455000D03*
D24*
X87250000Y-121455000D03*
X88250000Y-121455000D03*
X88750000Y-121455000D03*
X89750000Y-121455000D03*
D23*
X90950000Y-121455000D03*
X91750000Y-121455000D03*
X91750000Y-121455000D03*
X90950000Y-121455000D03*
D24*
X90250000Y-121455000D03*
X89250000Y-121455000D03*
X87750000Y-121455000D03*
X86750000Y-121455000D03*
D23*
X86050000Y-121455000D03*
X85250000Y-121455000D03*
D25*
X84180000Y-122370000D03*
D26*
X84180000Y-126550000D03*
D25*
X92820000Y-122370000D03*
D26*
X92820000Y-126550000D03*
%TD*%
D15*
%TO.C,C13*%
X122725000Y-124000000D03*
X124275000Y-124000000D03*
%TD*%
D27*
%TO.C,R3*%
X91175000Y-113000000D03*
X92825000Y-113000000D03*
%TD*%
D14*
%TO.C,SW7*%
X74750000Y-111750000D03*
X81250000Y-111750000D03*
X74750000Y-116250000D03*
X81250000Y-116250000D03*
%TD*%
%TO.C,SW4*%
X74750000Y-96750000D03*
X81250000Y-96750000D03*
X74750000Y-101250000D03*
X81250000Y-101250000D03*
%TD*%
D27*
%TO.C,R6*%
X75175000Y-105000000D03*
X76825000Y-105000000D03*
%TD*%
D14*
%TO.C,SW11*%
X116000000Y-91000000D03*
X122500000Y-91000000D03*
X116000000Y-95500000D03*
X122500000Y-95500000D03*
%TD*%
D28*
%TO.C,R11*%
X125000000Y-107825000D03*
X125000000Y-106175000D03*
%TD*%
D13*
%TO.C,C3*%
X124000000Y-101275000D03*
X124000000Y-99725000D03*
%TD*%
D15*
%TO.C,C2*%
X99000000Y-123500000D03*
X100550000Y-123500000D03*
%TD*%
D29*
%TO.C,SW2*%
X73900000Y-77000000D03*
X78100000Y-77000000D03*
%TD*%
D27*
%TO.C,R8*%
X78850000Y-105000000D03*
X80500000Y-105000000D03*
%TD*%
D15*
%TO.C,C15*%
X108000000Y-124000000D03*
X109550000Y-124000000D03*
%TD*%
D30*
%TO.C,D1*%
X113050000Y-125350000D03*
X113050000Y-128650000D03*
X117950000Y-128650000D03*
X117950000Y-125350000D03*
%TD*%
D28*
%TO.C,R13*%
X125000000Y-85825000D03*
X125000000Y-84175000D03*
%TD*%
D27*
%TO.C,R2*%
X92500000Y-97000000D03*
X94150000Y-97000000D03*
%TD*%
%TO.C,R7*%
X75175000Y-107500000D03*
X76825000Y-107500000D03*
%TD*%
D31*
%TO.C,J3*%
X70500000Y-91600000D03*
X70500000Y-90500000D03*
X70500000Y-89400000D03*
X70500000Y-88300000D03*
X70500000Y-87200000D03*
X70500000Y-86100000D03*
X70500000Y-85000000D03*
X70500000Y-83900000D03*
X70500000Y-82950000D03*
D32*
X60000000Y-82000000D03*
D33*
X66200000Y-82000000D03*
D34*
X55850000Y-82000000D03*
D33*
X70500000Y-93150000D03*
D35*
X55400000Y-95500000D03*
%TD*%
D13*
%TO.C,C11*%
X56000000Y-109050000D03*
X56000000Y-107500000D03*
%TD*%
D15*
%TO.C,C4*%
X122725000Y-120500000D03*
X124275000Y-120500000D03*
%TD*%
D36*
%TO.C,U4*%
X59405000Y-115850000D03*
X58135000Y-115850000D03*
X56865000Y-115850000D03*
X55595000Y-115850000D03*
X55595000Y-124150000D03*
X56865000Y-124150000D03*
X58135000Y-124150000D03*
X59405000Y-124150000D03*
D37*
X57500000Y-120000000D03*
%TD*%
D28*
%TO.C,R12*%
X125000000Y-114825000D03*
X125000000Y-113175000D03*
%TD*%
D14*
%TO.C,SW9*%
X115750000Y-112250000D03*
X122250000Y-112250000D03*
X115750000Y-116750000D03*
X122250000Y-116750000D03*
%TD*%
D28*
%TO.C,R5*%
X76000000Y-90325000D03*
X76000000Y-88675000D03*
%TD*%
D38*
%TO.C,U1*%
X96960000Y-119500000D03*
X98240000Y-119500000D03*
X99500000Y-119500000D03*
X100770000Y-119500000D03*
X100770000Y-114140000D03*
X99500000Y-114140000D03*
X98240000Y-114140000D03*
X96960000Y-114140000D03*
%TD*%
D14*
%TO.C,SW8*%
X115750000Y-104750000D03*
X122250000Y-104750000D03*
X115750000Y-109250000D03*
X122250000Y-109250000D03*
%TD*%
D39*
%TO.C,J2*%
X75420000Y-70000000D03*
D40*
X77960000Y-70000000D03*
X80500000Y-70000000D03*
X83040000Y-70000000D03*
X85580000Y-70000000D03*
X88120000Y-70000000D03*
X90660000Y-70000000D03*
X93200000Y-70000000D03*
%TD*%
D13*
%TO.C,C8*%
X76000000Y-87050000D03*
X76000000Y-85500000D03*
%TD*%
D27*
%TO.C,R4*%
X114175000Y-77000000D03*
X115825000Y-77000000D03*
%TD*%
%TO.C,R9*%
X78675000Y-107500000D03*
X80325000Y-107500000D03*
%TD*%
D41*
%TO.C,SW1*%
X70700000Y-77500000D03*
X66500000Y-77500000D03*
%TD*%
D15*
%TO.C,C7*%
X96000000Y-128000000D03*
X97550000Y-128000000D03*
%TD*%
D13*
%TO.C,C12*%
X60000000Y-108050000D03*
X60000000Y-106500000D03*
%TD*%
D14*
%TO.C,SW10*%
X116000000Y-82500000D03*
X122500000Y-82500000D03*
X116000000Y-87000000D03*
X122500000Y-87000000D03*
%TD*%
D28*
%TO.C,R14*%
X125000000Y-91650000D03*
X125000000Y-90000000D03*
%TD*%
D27*
%TO.C,R1*%
X86675000Y-113500000D03*
X88325000Y-113500000D03*
%TD*%
D42*
%TO.C,CN1*%
X78000000Y-125500000D03*
X76000000Y-125500000D03*
%TD*%
D14*
%TO.C,SW5*%
X65250000Y-104250000D03*
X71750000Y-104250000D03*
X65250000Y-108750000D03*
X71750000Y-108750000D03*
%TD*%
D27*
%TO.C,R10*%
X107500000Y-104000000D03*
X109150000Y-104000000D03*
%TD*%
M02*
